<mxfile host="app.diagrams.net" modified="2023-11-21T15:03:23.916Z" agent="Mozilla/5.0 (Windows NT 10.0; Win64; x64) AppleWebKit/537.36 (KHTML, like Gecko) Chrome/119.0.0.0 Safari/537.36" etag="Q_1hBko75hoKmFQL4oCy" version="22.1.3" type="github">
  <diagram name="Page-1" id="c37626ed-c26b-45fb-9056-f9ebc6bb27b6">
    <mxGraphModel dx="1174" dy="535" grid="1" gridSize="10" guides="1" tooltips="1" connect="1" arrows="1" fold="1" page="1" pageScale="1" pageWidth="1100" pageHeight="850" background="none" math="0" shadow="0">
      <root>
        <mxCell id="0" />
        <mxCell id="1" parent="0" />
        <mxCell id="1c7a67bf8fd3230f-15" value="Internet" style="ellipse;shape=cloud;whiteSpace=wrap;html=1;rounded=0;shadow=0;comic=0;strokeWidth=1;fontFamily=Verdana;fontSize=12;" parent="1" vertex="1">
          <mxGeometry x="1554" y="696" width="120" height="80" as="geometry" />
        </mxCell>
        <mxCell id="bptu-WYt8Glh1SQyL_a9-1" value="" style="shape=mxgraph.cisco.computers_and_peripherals.ibm_mini_as400;sketch=0;html=1;pointerEvents=1;dashed=0;fillColor=#036897;strokeColor=#ffffff;strokeWidth=2;verticalLabelPosition=bottom;verticalAlign=top;align=center;outlineConnect=0;" vertex="1" parent="1">
          <mxGeometry x="40" y="80" width="43" height="62" as="geometry" />
        </mxCell>
        <mxCell id="bptu-WYt8Glh1SQyL_a9-2" value="" style="shape=mxgraph.cisco.computers_and_peripherals.ibm_mini_as400;sketch=0;html=1;pointerEvents=1;dashed=0;fillColor=#036897;strokeColor=#ffffff;strokeWidth=2;verticalLabelPosition=bottom;verticalAlign=top;align=center;outlineConnect=0;" vertex="1" parent="1">
          <mxGeometry x="290" y="80" width="43" height="62" as="geometry" />
        </mxCell>
        <mxCell id="bptu-WYt8Glh1SQyL_a9-4" value="" style="shape=mxgraph.cisco.computers_and_peripherals.ibm_mini_as400;sketch=0;html=1;pointerEvents=1;dashed=0;fillColor=#036897;strokeColor=#ffffff;strokeWidth=2;verticalLabelPosition=bottom;verticalAlign=top;align=center;outlineConnect=0;" vertex="1" parent="1">
          <mxGeometry x="40" y="560" width="43" height="62" as="geometry" />
        </mxCell>
        <mxCell id="bptu-WYt8Glh1SQyL_a9-6" value="" style="shape=mxgraph.cisco.computers_and_peripherals.ibm_mini_as400;sketch=0;html=1;pointerEvents=1;dashed=0;fillColor=#036897;strokeColor=#ffffff;strokeWidth=2;verticalLabelPosition=bottom;verticalAlign=top;align=center;outlineConnect=0;" vertex="1" parent="1">
          <mxGeometry x="40" y="450" width="43" height="62" as="geometry" />
        </mxCell>
        <mxCell id="bptu-WYt8Glh1SQyL_a9-9" value="" style="shape=mxgraph.cisco.computers_and_peripherals.ibm_mini_as400;sketch=0;html=1;pointerEvents=1;dashed=0;fillColor=#036897;strokeColor=#ffffff;strokeWidth=2;verticalLabelPosition=bottom;verticalAlign=top;align=center;outlineConnect=0;" vertex="1" parent="1">
          <mxGeometry x="40" y="178" width="43" height="62" as="geometry" />
        </mxCell>
        <mxCell id="bptu-WYt8Glh1SQyL_a9-10" value="" style="shape=mxgraph.cisco.computers_and_peripherals.ibm_mini_as400;sketch=0;html=1;pointerEvents=1;dashed=0;fillColor=#036897;strokeColor=#ffffff;strokeWidth=2;verticalLabelPosition=bottom;verticalAlign=top;align=center;outlineConnect=0;" vertex="1" parent="1">
          <mxGeometry x="160" y="80" width="43" height="62" as="geometry" />
        </mxCell>
        <mxCell id="bptu-WYt8Glh1SQyL_a9-12" value="" style="shape=mxgraph.cisco.computers_and_peripherals.ibm_mini_as400;sketch=0;html=1;pointerEvents=1;dashed=0;fillColor=#036897;strokeColor=#ffffff;strokeWidth=2;verticalLabelPosition=bottom;verticalAlign=top;align=center;outlineConnect=0;" vertex="1" parent="1">
          <mxGeometry x="40" y="363" width="43" height="62" as="geometry" />
        </mxCell>
        <mxCell id="bptu-WYt8Glh1SQyL_a9-13" value="" style="shape=mxgraph.cisco.computers_and_peripherals.ibm_mini_as400;sketch=0;html=1;pointerEvents=1;dashed=0;fillColor=#036897;strokeColor=#ffffff;strokeWidth=2;verticalLabelPosition=bottom;verticalAlign=top;align=center;outlineConnect=0;" vertex="1" parent="1">
          <mxGeometry x="220" y="560" width="43" height="62" as="geometry" />
        </mxCell>
        <mxCell id="bptu-WYt8Glh1SQyL_a9-14" value="" style="shape=mxgraph.cisco.computers_and_peripherals.tablet;sketch=0;html=1;pointerEvents=1;dashed=0;fillColor=#036897;strokeColor=#ffffff;strokeWidth=2;verticalLabelPosition=bottom;verticalAlign=top;align=center;outlineConnect=0;" vertex="1" parent="1">
          <mxGeometry x="860" y="335" width="91" height="50" as="geometry" />
        </mxCell>
        <mxCell id="bptu-WYt8Glh1SQyL_a9-18" value="" style="shape=mxgraph.cisco.computers_and_peripherals.tablet;sketch=0;html=1;pointerEvents=1;dashed=0;fillColor=#036897;strokeColor=#ffffff;strokeWidth=2;verticalLabelPosition=bottom;verticalAlign=top;align=center;outlineConnect=0;" vertex="1" parent="1">
          <mxGeometry x="801" y="425" width="91" height="50" as="geometry" />
        </mxCell>
        <mxCell id="bptu-WYt8Glh1SQyL_a9-19" value="" style="shape=mxgraph.cisco.computers_and_peripherals.tablet;sketch=0;html=1;pointerEvents=1;dashed=0;fillColor=#036897;strokeColor=#ffffff;strokeWidth=2;verticalLabelPosition=bottom;verticalAlign=top;align=center;outlineConnect=0;" vertex="1" parent="1">
          <mxGeometry x="880" y="142" width="91" height="50" as="geometry" />
        </mxCell>
        <mxCell id="bptu-WYt8Glh1SQyL_a9-20" value="" style="shape=mxgraph.cisco.computers_and_peripherals.tablet;sketch=0;html=1;pointerEvents=1;dashed=0;fillColor=#036897;strokeColor=#ffffff;strokeWidth=2;verticalLabelPosition=bottom;verticalAlign=top;align=center;outlineConnect=0;" vertex="1" parent="1">
          <mxGeometry x="870" y="240" width="91" height="50" as="geometry" />
        </mxCell>
        <mxCell id="bptu-WYt8Glh1SQyL_a9-21" value="" style="shape=mxgraph.cisco.computers_and_peripherals.tablet;sketch=0;html=1;pointerEvents=1;dashed=0;fillColor=#036897;strokeColor=#ffffff;strokeWidth=2;verticalLabelPosition=bottom;verticalAlign=top;align=center;outlineConnect=0;" vertex="1" parent="1">
          <mxGeometry x="720" y="532" width="91" height="50" as="geometry" />
        </mxCell>
        <mxCell id="bptu-WYt8Glh1SQyL_a9-23" value="" style="html=1;verticalLabelPosition=bottom;align=center;labelBackgroundColor=#ffffff;verticalAlign=top;strokeWidth=2;strokeColor=#0080F0;shadow=0;dashed=0;shape=mxgraph.ios7.icons.smartphone;" vertex="1" parent="1">
          <mxGeometry x="302.5" y="730" width="18" height="30" as="geometry" />
        </mxCell>
        <object label="" Serveur="" id="bptu-WYt8Glh1SQyL_a9-26">
          <mxCell style="image;html=1;image=img/lib/clip_art/computers/Server_128x128.png" vertex="1" parent="1">
            <mxGeometry x="780" width="80" height="80" as="geometry" />
          </mxCell>
        </object>
        <mxCell id="bptu-WYt8Glh1SQyL_a9-75" style="edgeStyle=orthogonalEdgeStyle;rounded=0;orthogonalLoop=1;jettySize=auto;html=1;" edge="1" parent="1" source="bptu-WYt8Glh1SQyL_a9-28" target="bptu-WYt8Glh1SQyL_a9-29">
          <mxGeometry relative="1" as="geometry" />
        </mxCell>
        <mxCell id="bptu-WYt8Glh1SQyL_a9-28" value="" style="strokeColor=#666666;html=1;labelPosition=right;align=left;spacingLeft=15;shadow=0;dashed=0;outlineConnect=0;shape=mxgraph.rack.f5.big_ip_110x0;" vertex="1" parent="1">
          <mxGeometry x="432" y="303" width="168" height="60" as="geometry" />
        </mxCell>
        <mxCell id="bptu-WYt8Glh1SQyL_a9-29" value="" style="image;html=1;image=img/lib/clip_art/networking/Switch_128x128.png" vertex="1" parent="1">
          <mxGeometry x="476" y="432" width="80" height="80" as="geometry" />
        </mxCell>
        <mxCell id="bptu-WYt8Glh1SQyL_a9-30" value="" style="shape=mxgraph.cisco.computers_and_peripherals.ibm_mini_as400;sketch=0;html=1;pointerEvents=1;dashed=0;fillColor=#036897;strokeColor=#ffffff;strokeWidth=2;verticalLabelPosition=bottom;verticalAlign=top;align=center;outlineConnect=0;" vertex="1" parent="1">
          <mxGeometry x="130" y="560" width="43" height="62" as="geometry" />
        </mxCell>
        <mxCell id="bptu-WYt8Glh1SQyL_a9-31" value="" style="html=1;verticalLabelPosition=bottom;align=center;labelBackgroundColor=#ffffff;verticalAlign=top;strokeWidth=2;strokeColor=#0080F0;shadow=0;dashed=0;shape=mxgraph.ios7.icons.smartphone;" vertex="1" parent="1">
          <mxGeometry x="453" y="730" width="18" height="30" as="geometry" />
        </mxCell>
        <mxCell id="bptu-WYt8Glh1SQyL_a9-32" value="" style="html=1;verticalLabelPosition=bottom;align=center;labelBackgroundColor=#ffffff;verticalAlign=top;strokeWidth=2;strokeColor=#0080F0;shadow=0;dashed=0;shape=mxgraph.ios7.icons.smartphone;" vertex="1" parent="1">
          <mxGeometry x="640" y="730" width="18" height="30" as="geometry" />
        </mxCell>
        <mxCell id="bptu-WYt8Glh1SQyL_a9-33" value="" style="html=1;verticalLabelPosition=bottom;align=center;labelBackgroundColor=#ffffff;verticalAlign=top;strokeWidth=2;strokeColor=#0080F0;shadow=0;dashed=0;shape=mxgraph.ios7.icons.smartphone;" vertex="1" parent="1">
          <mxGeometry x="541" y="730" width="18" height="30" as="geometry" />
        </mxCell>
        <mxCell id="bptu-WYt8Glh1SQyL_a9-34" value="" style="html=1;verticalLabelPosition=bottom;align=center;labelBackgroundColor=#ffffff;verticalAlign=top;strokeWidth=2;strokeColor=#0080F0;shadow=0;dashed=0;shape=mxgraph.ios7.icons.smartphone;" vertex="1" parent="1">
          <mxGeometry x="370" y="730" width="18" height="30" as="geometry" />
        </mxCell>
        <mxCell id="bptu-WYt8Glh1SQyL_a9-35" value="" style="shape=mxgraph.cisco.wireless.wireless;html=1;pointerEvents=1;dashed=0;fillColor=#036897;strokeColor=#ffffff;strokeWidth=2;verticalLabelPosition=bottom;verticalAlign=top;align=center;outlineConnect=0;" vertex="1" parent="1">
          <mxGeometry x="498.5" y="6.5" width="37" height="67" as="geometry" />
        </mxCell>
        <mxCell id="bptu-WYt8Glh1SQyL_a9-36" value="" style="image;html=1;image=img/lib/clip_art/computers/Printer_128x128.png" vertex="1" parent="1">
          <mxGeometry x="490" y="582" width="69" height="78" as="geometry" />
        </mxCell>
        <mxCell id="bptu-WYt8Glh1SQyL_a9-38" value="" style="endArrow=classic;startArrow=classic;html=1;rounded=0;exitX=0.9;exitY=0.9;exitDx=0;exitDy=0;exitPerimeter=0;entryX=0.9;entryY=0.9;entryDx=0;entryDy=0;entryPerimeter=0;" edge="1" parent="1" source="bptu-WYt8Glh1SQyL_a9-2" target="bptu-WYt8Glh1SQyL_a9-10">
          <mxGeometry width="50" height="50" relative="1" as="geometry">
            <mxPoint x="440" y="400" as="sourcePoint" />
            <mxPoint x="490" y="350" as="targetPoint" />
            <Array as="points">
              <mxPoint x="500" y="460" />
            </Array>
          </mxGeometry>
        </mxCell>
        <mxCell id="bptu-WYt8Glh1SQyL_a9-39" value="" style="endArrow=classic;startArrow=classic;html=1;rounded=0;" edge="1" parent="1" source="bptu-WYt8Glh1SQyL_a9-1" target="bptu-WYt8Glh1SQyL_a9-29">
          <mxGeometry width="50" height="50" relative="1" as="geometry">
            <mxPoint x="440" y="400" as="sourcePoint" />
            <mxPoint x="440" y="300" as="targetPoint" />
          </mxGeometry>
        </mxCell>
        <mxCell id="bptu-WYt8Glh1SQyL_a9-40" value="" style="endArrow=classic;startArrow=classic;html=1;rounded=0;" edge="1" parent="1" source="bptu-WYt8Glh1SQyL_a9-9" target="bptu-WYt8Glh1SQyL_a9-8">
          <mxGeometry width="50" height="50" relative="1" as="geometry">
            <mxPoint x="440" y="400" as="sourcePoint" />
            <mxPoint x="490" y="350" as="targetPoint" />
            <Array as="points">
              <mxPoint x="480" y="470" />
            </Array>
          </mxGeometry>
        </mxCell>
        <mxCell id="bptu-WYt8Glh1SQyL_a9-42" value="" style="endArrow=classic;startArrow=classic;html=1;rounded=0;entryX=1;entryY=0.5;entryDx=0;entryDy=0;entryPerimeter=0;" edge="1" parent="1" source="bptu-WYt8Glh1SQyL_a9-12" target="bptu-WYt8Glh1SQyL_a9-6">
          <mxGeometry width="50" height="50" relative="1" as="geometry">
            <mxPoint x="440" y="400" as="sourcePoint" />
            <mxPoint x="490" y="350" as="targetPoint" />
            <Array as="points">
              <mxPoint x="480" y="470" />
            </Array>
          </mxGeometry>
        </mxCell>
        <mxCell id="bptu-WYt8Glh1SQyL_a9-43" value="" style="endArrow=classic;startArrow=classic;html=1;rounded=0;" edge="1" parent="1" source="bptu-WYt8Glh1SQyL_a9-30" target="bptu-WYt8Glh1SQyL_a9-13">
          <mxGeometry width="50" height="50" relative="1" as="geometry">
            <mxPoint x="440" y="300" as="sourcePoint" />
            <mxPoint x="490" y="250" as="targetPoint" />
            <Array as="points">
              <mxPoint x="480" y="480" />
            </Array>
          </mxGeometry>
        </mxCell>
        <mxCell id="bptu-WYt8Glh1SQyL_a9-44" value="" style="endArrow=classic;html=1;rounded=0;exitX=0.5;exitY=1;exitDx=0;exitDy=0;exitPerimeter=0;" edge="1" parent="1" source="bptu-WYt8Glh1SQyL_a9-27" target="bptu-WYt8Glh1SQyL_a9-28">
          <mxGeometry width="50" height="50" relative="1" as="geometry">
            <mxPoint x="440" y="100" as="sourcePoint" />
            <mxPoint x="490" y="50" as="targetPoint" />
          </mxGeometry>
        </mxCell>
        <mxCell id="bptu-WYt8Glh1SQyL_a9-45" value="" style="endArrow=classic;html=1;rounded=0;exitX=0.5;exitY=1;exitDx=0;exitDy=0;exitPerimeter=0;" edge="1" parent="1" source="bptu-WYt8Glh1SQyL_a9-35" target="bptu-WYt8Glh1SQyL_a9-27">
          <mxGeometry width="50" height="50" relative="1" as="geometry">
            <mxPoint x="502" y="74" as="sourcePoint" />
            <mxPoint x="512" y="150" as="targetPoint" />
          </mxGeometry>
        </mxCell>
        <mxCell id="bptu-WYt8Glh1SQyL_a9-27" value="" style="image;aspect=fixed;html=1;points=[];align=center;fontSize=12;image=img/lib/azure2/preview/Azure_Sphere.svg;" vertex="1" parent="1">
          <mxGeometry x="484" y="120" width="66" height="68" as="geometry" />
        </mxCell>
        <mxCell id="bptu-WYt8Glh1SQyL_a9-46" value="" style="endArrow=classic;html=1;rounded=0;exitX=0.5;exitY=1;exitDx=0;exitDy=0;exitPerimeter=0;" edge="1" parent="1" source="bptu-WYt8Glh1SQyL_a9-2" target="bptu-WYt8Glh1SQyL_a9-36">
          <mxGeometry width="50" height="50" relative="1" as="geometry">
            <mxPoint x="440" y="400" as="sourcePoint" />
            <mxPoint x="490" y="350" as="targetPoint" />
          </mxGeometry>
        </mxCell>
        <mxCell id="bptu-WYt8Glh1SQyL_a9-47" value="" style="endArrow=classic;html=1;rounded=0;exitX=0.5;exitY=1;exitDx=0;exitDy=0;exitPerimeter=0;" edge="1" parent="1" source="bptu-WYt8Glh1SQyL_a9-10" target="bptu-WYt8Glh1SQyL_a9-36">
          <mxGeometry width="50" height="50" relative="1" as="geometry">
            <mxPoint x="440" y="400" as="sourcePoint" />
            <mxPoint x="490" y="350" as="targetPoint" />
          </mxGeometry>
        </mxCell>
        <mxCell id="bptu-WYt8Glh1SQyL_a9-48" value="" style="endArrow=classic;html=1;rounded=0;exitX=0.9;exitY=0.9;exitDx=0;exitDy=0;exitPerimeter=0;" edge="1" parent="1" source="bptu-WYt8Glh1SQyL_a9-8" target="bptu-WYt8Glh1SQyL_a9-36">
          <mxGeometry width="50" height="50" relative="1" as="geometry">
            <mxPoint x="440" y="400" as="sourcePoint" />
            <mxPoint x="490" y="350" as="targetPoint" />
          </mxGeometry>
        </mxCell>
        <mxCell id="bptu-WYt8Glh1SQyL_a9-49" value="" style="endArrow=classic;html=1;rounded=0;" edge="1" parent="1" source="bptu-WYt8Glh1SQyL_a9-9">
          <mxGeometry width="50" height="50" relative="1" as="geometry">
            <mxPoint x="100" y="210" as="sourcePoint" />
            <mxPoint x="504" y="656" as="targetPoint" />
          </mxGeometry>
        </mxCell>
        <mxCell id="bptu-WYt8Glh1SQyL_a9-50" value="" style="endArrow=classic;html=1;rounded=0;exitX=0.9;exitY=0.9;exitDx=0;exitDy=0;exitPerimeter=0;entryX=-0.062;entryY=0.355;entryDx=0;entryDy=0;entryPerimeter=0;" edge="1" parent="1" target="bptu-WYt8Glh1SQyL_a9-36">
          <mxGeometry width="50" height="50" relative="1" as="geometry">
            <mxPoint x="90" y="320" as="sourcePoint" />
            <mxPoint x="494" y="766" as="targetPoint" />
          </mxGeometry>
        </mxCell>
        <mxCell id="bptu-WYt8Glh1SQyL_a9-51" value="" style="endArrow=classic;html=1;rounded=0;entryX=-0.107;entryY=0.452;entryDx=0;entryDy=0;entryPerimeter=0;" edge="1" parent="1" source="bptu-WYt8Glh1SQyL_a9-12" target="bptu-WYt8Glh1SQyL_a9-36">
          <mxGeometry width="50" height="50" relative="1" as="geometry">
            <mxPoint x="110" y="410" as="sourcePoint" />
            <mxPoint x="494" y="700" as="targetPoint" />
          </mxGeometry>
        </mxCell>
        <mxCell id="bptu-WYt8Glh1SQyL_a9-52" value="" style="endArrow=classic;html=1;rounded=0;" edge="1" parent="1" source="bptu-WYt8Glh1SQyL_a9-13">
          <mxGeometry width="50" height="50" relative="1" as="geometry">
            <mxPoint x="100" y="480" as="sourcePoint" />
            <mxPoint x="470" y="630" as="targetPoint" />
          </mxGeometry>
        </mxCell>
        <mxCell id="bptu-WYt8Glh1SQyL_a9-53" value="" style="endArrow=classic;html=1;rounded=0;" edge="1" parent="1" source="bptu-WYt8Glh1SQyL_a9-6">
          <mxGeometry width="50" height="50" relative="1" as="geometry">
            <mxPoint x="120" y="520" as="sourcePoint" />
            <mxPoint x="480" y="640" as="targetPoint" />
          </mxGeometry>
        </mxCell>
        <mxCell id="bptu-WYt8Glh1SQyL_a9-54" value="" style="endArrow=classic;html=1;rounded=0;exitX=0.9;exitY=0.9;exitDx=0;exitDy=0;exitPerimeter=0;" edge="1" parent="1" source="bptu-WYt8Glh1SQyL_a9-30">
          <mxGeometry width="50" height="50" relative="1" as="geometry">
            <mxPoint x="200" y="630" as="sourcePoint" />
            <mxPoint x="470" y="640" as="targetPoint" />
          </mxGeometry>
        </mxCell>
        <mxCell id="bptu-WYt8Glh1SQyL_a9-55" value="" style="endArrow=classic;html=1;rounded=0;exitX=0.9;exitY=0.9;exitDx=0;exitDy=0;exitPerimeter=0;" edge="1" parent="1" source="bptu-WYt8Glh1SQyL_a9-4">
          <mxGeometry width="50" height="50" relative="1" as="geometry">
            <mxPoint x="100" y="640" as="sourcePoint" />
            <mxPoint x="470" y="640" as="targetPoint" />
          </mxGeometry>
        </mxCell>
        <mxCell id="bptu-WYt8Glh1SQyL_a9-59" value="" style="endArrow=classic;startArrow=classic;html=1;rounded=0;entryX=1.072;entryY=0.118;entryDx=0;entryDy=0;entryPerimeter=0;" edge="1" parent="1" source="bptu-WYt8Glh1SQyL_a9-19" target="bptu-WYt8Glh1SQyL_a9-29">
          <mxGeometry width="50" height="50" relative="1" as="geometry">
            <mxPoint x="440" y="400" as="sourcePoint" />
            <mxPoint x="620" y="350" as="targetPoint" />
          </mxGeometry>
        </mxCell>
        <mxCell id="bptu-WYt8Glh1SQyL_a9-60" value="" style="endArrow=classic;startArrow=classic;html=1;rounded=0;exitX=0.05;exitY=0.5;exitDx=0;exitDy=0;exitPerimeter=0;entryX=1;entryY=0.25;entryDx=0;entryDy=0;" edge="1" parent="1" source="bptu-WYt8Glh1SQyL_a9-20" target="bptu-WYt8Glh1SQyL_a9-29">
          <mxGeometry width="50" height="50" relative="1" as="geometry">
            <mxPoint x="730" y="270" as="sourcePoint" />
            <mxPoint x="610" y="370" as="targetPoint" />
          </mxGeometry>
        </mxCell>
        <mxCell id="bptu-WYt8Glh1SQyL_a9-61" value="" style="endArrow=classic;startArrow=classic;html=1;rounded=0;exitX=0.05;exitY=0.5;exitDx=0;exitDy=0;exitPerimeter=0;entryX=1;entryY=0.25;entryDx=0;entryDy=0;" edge="1" parent="1" source="bptu-WYt8Glh1SQyL_a9-14" target="bptu-WYt8Glh1SQyL_a9-29">
          <mxGeometry width="50" height="50" relative="1" as="geometry">
            <mxPoint x="710" y="340" as="sourcePoint" />
            <mxPoint x="435" y="392" as="targetPoint" />
          </mxGeometry>
        </mxCell>
        <mxCell id="bptu-WYt8Glh1SQyL_a9-62" value="" style="endArrow=classic;startArrow=classic;html=1;rounded=0;entryX=1;entryY=0.25;entryDx=0;entryDy=0;" edge="1" parent="1" source="bptu-WYt8Glh1SQyL_a9-18" target="bptu-WYt8Glh1SQyL_a9-29">
          <mxGeometry width="50" height="50" relative="1" as="geometry">
            <mxPoint x="700" y="390" as="sourcePoint" />
            <mxPoint x="425" y="442" as="targetPoint" />
          </mxGeometry>
        </mxCell>
        <mxCell id="bptu-WYt8Glh1SQyL_a9-63" value="" style="endArrow=classic;startArrow=classic;html=1;rounded=0;exitX=0.1;exitY=0;exitDx=0;exitDy=0;exitPerimeter=0;entryX=0.931;entryY=0.343;entryDx=0;entryDy=0;entryPerimeter=0;" edge="1" parent="1" source="bptu-WYt8Glh1SQyL_a9-21" target="bptu-WYt8Glh1SQyL_a9-29">
          <mxGeometry width="50" height="50" relative="1" as="geometry">
            <mxPoint x="630" y="430" as="sourcePoint" />
            <mxPoint x="355" y="482" as="targetPoint" />
          </mxGeometry>
        </mxCell>
        <mxCell id="bptu-WYt8Glh1SQyL_a9-64" value="" style="endArrow=classic;startArrow=classic;html=1;rounded=0;" edge="1" parent="1" source="bptu-WYt8Glh1SQyL_a9-19">
          <mxGeometry width="50" height="50" relative="1" as="geometry">
            <mxPoint x="751" y="100" as="sourcePoint" />
            <mxPoint x="801" y="50" as="targetPoint" />
          </mxGeometry>
        </mxCell>
        <mxCell id="bptu-WYt8Glh1SQyL_a9-65" value="" style="endArrow=classic;startArrow=classic;html=1;rounded=0;" edge="1" parent="1" source="bptu-WYt8Glh1SQyL_a9-20">
          <mxGeometry width="50" height="50" relative="1" as="geometry">
            <mxPoint x="751" y="107" as="sourcePoint" />
            <mxPoint x="801" y="57" as="targetPoint" />
          </mxGeometry>
        </mxCell>
        <mxCell id="bptu-WYt8Glh1SQyL_a9-66" value="" style="endArrow=classic;startArrow=classic;html=1;rounded=0;" edge="1" parent="1" source="bptu-WYt8Glh1SQyL_a9-14">
          <mxGeometry width="50" height="50" relative="1" as="geometry">
            <mxPoint x="751" y="100" as="sourcePoint" />
            <mxPoint x="801" y="50" as="targetPoint" />
          </mxGeometry>
        </mxCell>
        <mxCell id="bptu-WYt8Glh1SQyL_a9-67" value="" style="endArrow=classic;startArrow=classic;html=1;rounded=0;" edge="1" parent="1" source="bptu-WYt8Glh1SQyL_a9-18">
          <mxGeometry width="50" height="50" relative="1" as="geometry">
            <mxPoint x="751" y="100" as="sourcePoint" />
            <mxPoint x="801" y="50" as="targetPoint" />
          </mxGeometry>
        </mxCell>
        <mxCell id="bptu-WYt8Glh1SQyL_a9-68" value="" style="endArrow=classic;startArrow=classic;html=1;rounded=0;" edge="1" parent="1" source="bptu-WYt8Glh1SQyL_a9-21">
          <mxGeometry width="50" height="50" relative="1" as="geometry">
            <mxPoint x="751" y="100" as="sourcePoint" />
            <mxPoint x="801" y="50" as="targetPoint" />
          </mxGeometry>
        </mxCell>
        <mxCell id="bptu-WYt8Glh1SQyL_a9-69" value="" style="endArrow=classic;startArrow=classic;html=1;rounded=0;exitX=1;exitY=0.5;exitDx=0;exitDy=0;exitPerimeter=0;" edge="1" parent="1" source="bptu-WYt8Glh1SQyL_a9-2">
          <mxGeometry width="50" height="50" relative="1" as="geometry">
            <mxPoint x="761" y="80" as="sourcePoint" />
            <mxPoint x="811" y="30" as="targetPoint" />
          </mxGeometry>
        </mxCell>
        <mxCell id="bptu-WYt8Glh1SQyL_a9-70" value="" style="endArrow=classic;startArrow=classic;html=1;rounded=0;" edge="1" parent="1" source="bptu-WYt8Glh1SQyL_a9-10">
          <mxGeometry width="50" height="50" relative="1" as="geometry">
            <mxPoint x="740.5" y="90" as="sourcePoint" />
            <mxPoint x="790.5" y="40" as="targetPoint" />
          </mxGeometry>
        </mxCell>
        <mxCell id="bptu-WYt8Glh1SQyL_a9-71" value="" style="endArrow=classic;startArrow=classic;html=1;rounded=0;exitX=1;exitY=0.5;exitDx=0;exitDy=0;exitPerimeter=0;" edge="1" parent="1" source="bptu-WYt8Glh1SQyL_a9-1">
          <mxGeometry width="50" height="50" relative="1" as="geometry">
            <mxPoint x="730" y="90" as="sourcePoint" />
            <mxPoint x="780" y="40" as="targetPoint" />
          </mxGeometry>
        </mxCell>
        <mxCell id="bptu-WYt8Glh1SQyL_a9-72" value="" style="endArrow=classic;startArrow=classic;html=1;rounded=0;" edge="1" parent="1" source="bptu-WYt8Glh1SQyL_a9-9">
          <mxGeometry width="50" height="50" relative="1" as="geometry">
            <mxPoint x="751" y="80" as="sourcePoint" />
            <mxPoint x="801" y="30" as="targetPoint" />
          </mxGeometry>
        </mxCell>
        <mxCell id="bptu-WYt8Glh1SQyL_a9-73" value="" style="endArrow=classic;startArrow=classic;html=1;rounded=0;entryX=1;entryY=0.5;entryDx=0;entryDy=0;entryPerimeter=0;exitX=1;exitY=0.5;exitDx=0;exitDy=0;exitPerimeter=0;" edge="1" parent="1" source="bptu-WYt8Glh1SQyL_a9-12" target="bptu-WYt8Glh1SQyL_a9-8">
          <mxGeometry width="50" height="50" relative="1" as="geometry">
            <mxPoint x="440" y="300" as="sourcePoint" />
            <mxPoint x="490" y="250" as="targetPoint" />
            <Array as="points">
              <mxPoint x="790" y="50" />
            </Array>
          </mxGeometry>
        </mxCell>
        <mxCell id="bptu-WYt8Glh1SQyL_a9-76" value="" style="endArrow=classic;startArrow=classic;html=1;rounded=0;entryX=0.25;entryY=1;entryDx=0;entryDy=0;exitX=0.651;exitY=0.057;exitDx=0;exitDy=0;exitPerimeter=0;" edge="1" parent="1" source="bptu-WYt8Glh1SQyL_a9-34" target="bptu-WYt8Glh1SQyL_a9-29">
          <mxGeometry width="50" height="50" relative="1" as="geometry">
            <mxPoint x="440" y="600" as="sourcePoint" />
            <mxPoint x="490" y="550" as="targetPoint" />
          </mxGeometry>
        </mxCell>
        <mxCell id="bptu-WYt8Glh1SQyL_a9-77" value="" style="endArrow=classic;startArrow=classic;html=1;rounded=0;exitX=0.641;exitY=0.194;exitDx=0;exitDy=0;exitPerimeter=0;" edge="1" parent="1" source="bptu-WYt8Glh1SQyL_a9-23" target="bptu-WYt8Glh1SQyL_a9-29">
          <mxGeometry width="50" height="50" relative="1" as="geometry">
            <mxPoint x="440" y="600" as="sourcePoint" />
            <mxPoint x="490" y="550" as="targetPoint" />
          </mxGeometry>
        </mxCell>
        <mxCell id="bptu-WYt8Glh1SQyL_a9-78" value="" style="endArrow=classic;startArrow=classic;html=1;rounded=0;entryX=0.456;entryY=-0.216;entryDx=0;entryDy=0;entryPerimeter=0;exitX=0.5;exitY=1;exitDx=0;exitDy=0;" edge="1" parent="1" source="bptu-WYt8Glh1SQyL_a9-29" target="bptu-WYt8Glh1SQyL_a9-31">
          <mxGeometry width="50" height="50" relative="1" as="geometry">
            <mxPoint x="510" y="530" as="sourcePoint" />
            <mxPoint x="624" y="310" as="targetPoint" />
          </mxGeometry>
        </mxCell>
        <mxCell id="bptu-WYt8Glh1SQyL_a9-79" value="" style="endArrow=classic;startArrow=classic;html=1;rounded=0;exitX=0.75;exitY=1;exitDx=0;exitDy=0;" edge="1" parent="1" source="bptu-WYt8Glh1SQyL_a9-29">
          <mxGeometry width="50" height="50" relative="1" as="geometry">
            <mxPoint x="540" y="540" as="sourcePoint" />
            <mxPoint x="540" y="720" as="targetPoint" />
          </mxGeometry>
        </mxCell>
        <mxCell id="bptu-WYt8Glh1SQyL_a9-80" value="" style="endArrow=classic;startArrow=classic;html=1;rounded=0;exitX=0.911;exitY=0.92;exitDx=0;exitDy=0;exitPerimeter=0;" edge="1" parent="1" source="bptu-WYt8Glh1SQyL_a9-29">
          <mxGeometry width="50" height="50" relative="1" as="geometry">
            <mxPoint x="570" y="540" as="sourcePoint" />
            <mxPoint x="640" y="720" as="targetPoint" />
          </mxGeometry>
        </mxCell>
        <mxCell id="bptu-WYt8Glh1SQyL_a9-81" value="" style="endArrow=classic;html=1;rounded=0;exitX=0.9;exitY=0.9;exitDx=0;exitDy=0;exitPerimeter=0;" edge="1" parent="1" source="bptu-WYt8Glh1SQyL_a9-1" target="bptu-WYt8Glh1SQyL_a9-8">
          <mxGeometry width="50" height="50" relative="1" as="geometry">
            <mxPoint x="79" y="136" as="sourcePoint" />
            <mxPoint x="490" y="583" as="targetPoint" />
          </mxGeometry>
        </mxCell>
        <mxCell id="bptu-WYt8Glh1SQyL_a9-8" value="" style="shape=mxgraph.cisco.computers_and_peripherals.ibm_mini_as400;sketch=0;html=1;pointerEvents=1;dashed=0;fillColor=#036897;strokeColor=#ffffff;strokeWidth=2;verticalLabelPosition=bottom;verticalAlign=top;align=center;outlineConnect=0;" vertex="1" parent="1">
          <mxGeometry x="40" y="270" width="43" height="62" as="geometry" />
        </mxCell>
      </root>
    </mxGraphModel>
  </diagram>
</mxfile>
